# xmcd CD database file
#
# Track frame offsets:
#	150
#	40297
#	65572
#	102150
#	130772
#	165395
#	193707
#	232465
#
# Disc length: 3719 seconds
#
# Revision: 0
# Processed by: cddbd v1.5.2PL0 Copyright (c) Steve Scherf et al.
# Submitted via: CDex 1.51
#
DISCID=6e0e8508
DTITLE=Enrico Pieranunzi Feat. Massimo Urbani - Live At The Berlin Jazz Days '84
DYEAR=2004
DGENRE=Jazz
TTITLE0=Monologue 2_Introspection, All The Things You Are
TTITLE1=The Mood Is Good
TTITLE2=If There Is Someone Lovelier Than You
TTITLE3=Turn Out The Stars
TTITLE4=The Reason Why
TTITLE5=Autumn Song
TTITLE6=Solar
TTITLE7=Will You Still Be Mine?
EXTD=YEAR: 2004
EXTT0=
EXTT1=
EXTT2=
EXTT3=
EXTT4=
EXTT5=
EXTT6=
EXTT7=
PLAYORDER=
